<?xml version="1.0" standalone="no"?>
<!DOCTYPE svg PUBLIC "-//W3C//DTD SVG 20010904//EN"
 "http://www.w3.org/TR/2001/REC-SVG-20010904/DTD/svg10.dtd">
<svg version="1.0" xmlns="http://www.w3.org/2000/svg"
 width="2560.000000pt" height="514.000000pt" viewBox="0 0 2560.000000 514.000000"
 preserveAspectRatio="xMidYMid meet">

<g transform="translate(0.000000,514.000000) scale(0.100000,-0.100000)"
fill="#222b45" stroke="none">
<path d="M1757 4352 l-787 -787 287 -288 288 -287 497 497 498 498 500 -500
500 -500 285 285 c157 157 285 289 285 295 0 6 -352 362 -783 793 l-782 782
-788 -788z"/>
<path d="M21505 3925 c-108 -17 -263 -64 -363 -111 -400 -183 -677 -537 -774
-987 -29 -137 -32 -426 -5 -562 114 -566 510 -974 1070 -1101 46 -10 141 -18
262 -21 304 -8 487 27 710 137 135 66 255 153 364 263 l74 75 -184 191 c-101
105 -186 191 -189 191 -3 0 -34 -25 -70 -56 -153 -131 -297 -208 -445 -239
-115 -24 -298 -22 -398 4 -287 75 -502 313 -574 635 -24 109 -21 309 6 421 57
234 208 438 401 539 131 69 186 81 370 81 145 0 174 -3 240 -23 126 -40 240
-105 382 -219 l67 -53 137 157 c76 87 162 186 191 220 l54 61 -78 67 c-199
171 -378 259 -638 315 -131 29 -473 37 -610 15z"/>
<path d="M14227 2568 c-317 -744 -579 -1361 -583 -1371 -6 -16 12 -17 297 -17
l304 0 124 305 124 305 576 0 577 0 124 -305 124 -305 308 0 c172 0 308 4 308
9 0 5 -260 620 -579 1367 l-578 1359 -275 3 -275 2 -576 -1352z m1025 189
l177 -432 -356 -3 c-196 -1 -358 -1 -360 1 -4 5 350 867 357 867 3 0 85 -195
182 -433z"/>
<path d="M6010 2539 l0 -1360 753 4 c800 5 802 5 993 56 43 12 126 45 184 73
89 44 118 65 185 132 138 139 188 267 188 486 0 82 -6 149 -17 194 -46 193
-174 333 -406 443 -66 31 -73 37 -56 47 151 88 268 239 311 402 21 78 21 269
0 349 -61 238 -260 422 -531 491 -154 39 -271 44 -956 44 l-648 0 0 -1361z
m1252 831 c217 -25 313 -112 312 -282 -1 -134 -63 -214 -202 -260 -63 -21 -88
-22 -424 -26 l-358 -4 0 285 c0 156 3 287 7 290 10 11 568 8 665 -3z m209
-1084 c114 -24 187 -75 232 -160 28 -54 30 -171 4 -238 -21 -54 -80 -111 -142
-138 -94 -40 -153 -45 -570 -45 l-400 0 -3 298 -2 297 407 0 c312 0 424 -4
474 -14z"/>
<path d="M9070 2540 l0 -1360 300 0 300 0 -2 1358 -3 1357 -297 3 -298 2 0
-1360z"/>
<path d="M10570 2540 l0 -1360 295 0 295 0 0 861 c0 539 4 858 9 854 6 -3 303
-390 662 -860 l651 -855 254 0 254 0 0 1360 0 1360 -295 0 -295 0 -2 -836 -3
-835 -635 835 -635 835 -277 1 -278 0 0 -1360z"/>
<path d="M17170 2540 l0 -1360 290 0 290 0 0 860 c0 473 3 860 8 859 4 0 301
-387 661 -860 l654 -859 254 0 253 0 0 1360 0 1360 -295 0 -295 0 -2 -835 -3
-834 -635 834 -635 834 -272 1 -273 0 0 -1360z"/>
<path d="M23557 3893 c-4 -3 -7 -615 -7 -1360 l0 -1353 1025 0 1025 0 0 265 0
265 -730 0 -730 0 0 285 0 285 640 0 640 0 0 265 0 265 -637 2 -638 3 -3 278
-2 277 730 0 730 0 0 265 0 265 -1018 0 c-560 0 -1022 -3 -1025 -7z"/>
<path d="M2245 2870 l-290 -290 295 -295 295 -295 292 292 293 293 -292 292
c-161 161 -295 293 -298 293 -3 0 -136 -131 -295 -290z"/>
<path d="M277 2872 c-178 -178 -277 -284 -277 -297 0 -13 99 -119 278 -298
l277 -277 290 290 290 290 -285 285 c-157 157 -287 285 -290 285 -3 0 -130
-125 -283 -278z"/>
<path d="M4237 2862 l-287 -287 288 -288 287 -287 290 290 290 290 -285 285
c-157 157 -287 285 -290 285 -3 0 -134 -129 -293 -288z"/>
<path d="M1255 1880 l-290 -290 788 -788 787 -787 787 787 788 788 -285 285
c-157 157 -288 284 -291 283 -4 -2 -231 -223 -504 -492 l-496 -490 -497 497
-497 497 -290 -290z"/>
</g>
</svg>
