<svg width="28" height="32" viewBox="0 0 28 32" fill="none" xmlns="http://www.w3.org/2000/svg">
<path d="M13.664 31.9939C13.0606 31.9769 12.2147 31.8931 11.6365 31.7929C9.00827 31.3376 6.64062 30.1912 4.64807 28.4091C4.39039 28.1786 3.86408 27.6528 3.61794 27.3799C2.56453 26.2117 1.73814 24.9217 1.12752 23.4921C0.526617 22.0851 0.164062 20.5886 0.0497873 19.044C0.00166249 18.3932 -0.00135625 18.1746 0.00288749 15.6072L0.00708748 13.0516L3.81516 14.726C5.9096 15.6469 7.63164 16.4058 7.64192 16.4125C7.65728 16.4224 7.65973 16.6133 7.65583 17.4895C7.65063 18.649 7.65063 18.6487 7.73524 19.1286C8.01296 20.704 8.8782 22.1163 10.1632 23.0918C11.7637 24.3068 13.869 24.6923 15.7929 24.1228C17.0591 23.7479 18.1531 23.0119 18.979 21.9793C19.6418 21.1506 20.1005 20.124 20.2714 19.0873C20.3549 18.5808 20.3589 18.4923 20.3478 17.4084C20.3393 16.5757 20.3407 16.426 20.3574 16.4128C20.3738 16.3998 27.8733 13.0992 27.9691 13.0628C28.0012 13.0506 28.0012 13.0506 27.9958 15.8165C27.9899 18.8894 27.991 18.8459 27.8941 19.6735C27.654 21.7225 26.9512 23.7026 25.8362 25.4713C24.9683 26.8481 23.8323 28.0937 22.533 29.0932C20.4703 30.6801 18.0178 31.6572 15.442 31.9181C15.0921 31.9535 14.8134 31.9731 14.42 31.9897C14.124 32.0022 13.9853 32.003 13.664 31.9939V31.9939ZM5.46707 10.8099C4.28897 10.3098 2.57853 9.58448 1.66608 9.1979L0.00708748 8.49507L0.00354374 4.24753L0 0H3.82085C6.21528 0 7.64345 0.00493935 7.64634 0.0132444C7.64896 0.0205442 9.07797 0.637963 10.822 1.38533C13.706 2.62122 13.9967 2.74291 14.035 2.7305C14.1315 2.69924 20.3494 0.0253524 20.3537 0.0132007C20.3566 0.00498306 21.795 0 24.1791 0H28L27.9965 4.2481L27.9929 8.49625L27.7409 8.60391C27.5175 8.69937 23.082 10.5786 21.1212 11.4085C20.7143 11.5807 20.3726 11.7216 20.3617 11.7216C20.3448 11.7216 20.3419 11.4653 20.3419 9.94597C20.3419 8.96937 20.3365 8.16701 20.3299 8.16295C20.3233 8.15884 18.9074 8.76035 17.1834 9.49963C15.4595 10.2389 14.0354 10.8467 14.0189 10.8504C13.9993 10.8547 12.8834 10.3833 10.8363 9.50571C9.10247 8.76249 7.67801 8.15797 7.67093 8.16238C7.66309 8.16719 7.65798 8.87461 7.65798 9.94597C7.65798 11.6282 7.65671 11.7215 7.63348 11.7202C7.62 11.7195 6.64508 11.3099 5.46698 10.8099H5.46707Z" fill="url(#paint0_linear_194_53)"/>
<defs>
<linearGradient id="paint0_linear_194_53" x1="0.0280061" y1="7.03215" x2="28.0664" y2="18.78" gradientUnits="userSpaceOnUse">
<stop stop-color="#3455C3"/>
<stop offset="1" stop-color="#4280E4"/>
</linearGradient>
</defs>
</svg>
