<svg width="190" height="28" viewBox="0 0 190 28" fill="none" xmlns="http://www.w3.org/2000/svg">
<g clip-path="url(#clip0_193_38)">
<path d="M10.7141 24.9925C10.2399 24.9793 9.57532 24.9137 9.12102 24.8355C7.05598 24.4799 5.19567 23.5843 3.6301 22.1922C3.42763 22.0122 3.0141 21.6014 2.8207 21.3882C1.99302 20.4757 1.34371 19.4679 0.86394 18.3512C0.391799 17.2521 0.106934 16.0831 0.0171461 14.8765C-0.0206664 14.3681 -0.0230383 14.1974 -0.0197039 12.1918L-0.0164039 10.1954L2.97566 11.5034C4.6213 12.2228 5.97433 12.8156 5.98241 12.8209C5.99448 12.8286 5.9964 12.9778 5.99334 13.6622C5.98925 14.5679 5.98925 14.5678 6.05573 14.9426C6.27395 16.1732 6.95378 17.2765 7.96341 18.0385C9.22095 18.9876 10.8751 19.2888 12.3868 18.8439C13.3817 18.5511 14.2412 17.9761 14.8902 17.1694C15.4109 16.5221 15.7713 15.7202 15.9056 14.9103C15.9712 14.5147 15.9744 14.4455 15.9656 13.5988C15.9589 12.9483 15.9601 12.8314 15.9732 12.8211C15.9861 12.811 21.8785 10.2327 21.9538 10.2042C21.9791 10.1947 21.9791 10.1947 21.9748 12.3553C21.9701 14.7558 21.971 14.7217 21.8949 15.3682C21.7062 16.9689 21.154 18.5156 20.2779 19.8973C19.596 20.9728 18.7034 21.9458 17.6826 22.7266C16.0618 23.9662 14.1349 24.7295 12.1111 24.9333C11.8362 24.961 11.6172 24.9762 11.3081 24.9892C11.0755 24.999 10.9665 24.9996 10.7141 24.9926V24.9925ZM4.2736 8.44429C3.34795 8.05367 2.00402 7.48706 1.2871 7.18508L-0.0164039 6.63605L-0.0191883 3.31802L-0.0219727 0H2.98013C4.86148 0 5.98362 0.00385845 5.98588 0.0103461C5.98795 0.0160484 7.11074 0.498354 8.48103 1.08217C10.7471 2.04761 10.9755 2.14267 11.0055 2.13297C11.0814 2.10856 15.9669 0.0198044 15.9702 0.010312C15.9725 0.00389259 17.1027 0 18.976 0H21.9781L21.9753 3.31847L21.9725 6.63697L21.7745 6.72107C21.599 6.79565 18.1139 8.2636 16.5733 8.91188C16.2536 9.04642 15.9851 9.15647 15.9766 9.15647C15.9633 9.15647 15.961 8.95627 15.961 7.76944C15.961 7.00656 15.9568 6.37979 15.9516 6.37661C15.9464 6.3734 14.8339 6.84328 13.4793 7.42078C12.1248 7.99825 11.0059 8.47308 10.9929 8.47595C10.9775 8.47933 10.1007 8.11103 8.4923 7.42553C7.12999 6.84495 6.01077 6.37272 6.0052 6.37617C5.99905 6.37992 5.99503 6.93254 5.99503 7.76944C5.99503 9.08353 5.99403 9.15643 5.97578 9.15544C5.96519 9.1549 5.19918 8.83489 4.27353 8.44429H4.2736Z" fill="url(#paint0_linear_193_38)"/>
<path d="M51.288 3.99316V14.5838C51.288 16.0601 51.0072 17.3438 50.4455 18.4349C49.8839 19.5181 49.0415 20.3565 47.9182 20.9502C46.795 21.5359 45.3869 21.8287 43.694 21.8287C41.271 21.8287 39.4216 21.207 38.146 19.9634C36.8703 18.7198 36.2324 16.9627 36.2324 14.6921V3.99316H41.0102V14.319C41.0102 15.5626 41.2429 16.4652 41.7083 17.0269C42.1736 17.5885 42.8596 17.8693 43.7662 17.8693C44.4161 17.8693 44.9456 17.7489 45.3548 17.5083C45.764 17.2595 46.0608 16.8704 46.2454 16.3409C46.4379 15.8113 46.5342 15.1294 46.5342 14.295V3.99316H51.288Z" fill="#222B45"/>
<path d="M59.6579 21.5883H54.9523V2.86206H59.6579V21.5883Z" fill="#222B45"/>
<path d="M69.8452 18.11C70.2704 18.11 70.6595 18.0659 71.0125 17.9776C71.3656 17.8894 71.7346 17.777 72.1197 17.6406V21.0706C71.6062 21.2952 71.0607 21.4757 70.483 21.6121C69.9133 21.7565 69.1832 21.8287 68.2927 21.8287C67.4101 21.8287 66.6319 21.6924 65.9579 21.4196C65.284 21.1388 64.7584 20.6574 64.3814 19.9754C64.0123 19.2854 63.8277 18.3266 63.8277 17.0991V11.4788H62.179V9.56527L64.273 8.08499L65.4886 5.2207H68.5695V7.95261H71.9151V11.4788H68.5695V16.7862C68.5695 17.2274 68.6818 17.5604 68.9064 17.7851C69.1311 18.0017 69.444 18.11 69.8452 18.11Z" fill="#222B45"/>
<path d="M82.9809 7.71191C83.2376 7.71191 83.5064 7.73197 83.7872 7.77208C84.068 7.80418 84.2766 7.83226 84.413 7.85633L83.9918 12.2972C83.8394 12.2571 83.6428 12.225 83.4021 12.2009C83.1614 12.1688 82.8245 12.1528 82.3912 12.1528C82.0943 12.1528 81.7774 12.1808 81.4404 12.237C81.1035 12.2932 80.7825 12.4135 80.4777 12.5981C80.1808 12.7746 79.9361 13.0474 79.7435 13.4164C79.551 13.7775 79.4547 14.2669 79.4547 14.8847V21.5881H74.7491V7.95261H78.2512L78.9853 10.1309H79.214C79.4627 9.68161 79.7796 9.27643 80.1648 8.91539C80.5579 8.54632 80.9952 8.25348 81.4766 8.03685C81.966 7.82022 82.4674 7.71191 82.9809 7.71191Z" fill="#222B45"/>
<path d="M93.2283 7.71191C94.9533 7.71191 96.3012 8.14115 97.272 8.99963C98.2428 9.85009 98.7282 11.0656 98.7282 12.6462V21.5881H95.4668L94.5642 19.7828H94.4679C94.0828 20.2642 93.6856 20.6574 93.2764 20.9622C92.8753 21.2591 92.4139 21.4757 91.8924 21.6121C91.3709 21.7565 90.7331 21.8287 89.9789 21.8287C89.1926 21.8287 88.4866 21.6683 87.8608 21.3474C87.235 21.0264 86.7415 20.541 86.3805 19.8911C86.0195 19.2413 85.8389 18.4189 85.8389 17.424C85.8389 15.9638 86.3444 14.8807 87.3553 14.1746C88.3662 13.4686 89.8305 13.0714 91.748 12.9832L94.0226 12.911V12.7184C94.0226 12.1086 93.8702 11.6754 93.5653 11.4186C93.2684 11.1619 92.8673 11.0335 92.3618 11.0335C91.8242 11.0335 91.2225 11.1298 90.5566 11.3224C89.8987 11.5069 89.2368 11.7476 88.5708 12.0444L87.2109 8.93946C87.9972 8.5383 88.8877 8.23342 89.8826 8.02481C90.8775 7.81621 91.9927 7.71191 93.2283 7.71191ZM94.0467 15.4984L92.9635 15.5466C92.097 15.5787 91.4873 15.7311 91.1342 16.0039C90.7892 16.2687 90.6167 16.6498 90.6167 17.1472C90.6167 17.6126 90.7411 17.9576 90.9898 18.1822C91.2385 18.3988 91.5675 18.5071 91.9767 18.5071C92.5463 18.5071 93.0317 18.3266 93.4329 17.9656C93.8421 17.6045 94.0467 17.1352 94.0467 16.5575V15.4984Z" fill="#222B45"/>
<path d="M118.82 7.71191C120.377 7.71191 121.564 8.10906 122.382 8.90336C123.209 9.69765 123.622 10.9693 123.622 12.7184V21.5881H118.916V14.1746C118.916 13.1396 118.776 12.4215 118.495 12.0204C118.222 11.6112 117.813 11.4066 117.268 11.4066C116.505 11.4066 115.976 11.7396 115.679 12.4055C115.39 13.0714 115.246 14.0141 115.246 15.2337V21.5881H110.528V14.1746C110.528 13.5167 110.468 12.9872 110.348 12.586C110.235 12.1768 110.063 11.88 109.83 11.6954C109.597 11.5029 109.305 11.4066 108.952 11.4066C108.414 11.4066 107.993 11.5711 107.688 11.9C107.391 12.221 107.182 12.6943 107.062 13.3201C106.942 13.9459 106.882 14.7122 106.882 15.6188V21.5881H102.176V7.95261H105.726L106.412 9.63748H106.545C106.785 9.26841 107.094 8.93946 107.471 8.65062C107.856 8.36179 108.31 8.13313 108.831 7.96464C109.361 7.79615 109.962 7.71191 110.636 7.71191C111.639 7.71191 112.466 7.8804 113.116 8.21737C113.765 8.55435 114.295 9.01969 114.704 9.61341H114.849C115.282 9.00365 115.839 8.53429 116.521 8.20534C117.203 7.87639 117.97 7.71191 118.82 7.71191Z" fill="#222B45"/>
<path d="M131.799 7.95272V21.5882H127.094V7.95272H131.799ZM129.465 2.46484C130.139 2.46484 130.724 2.60525 131.222 2.88606C131.727 3.16687 131.98 3.72449 131.98 4.5589C131.98 5.36924 131.727 5.91883 131.222 6.20767C130.724 6.48848 130.139 6.62889 129.465 6.62889C128.775 6.62889 128.185 6.48848 127.696 6.20767C127.214 5.91883 126.973 5.36924 126.973 4.5589C126.973 3.72449 127.214 3.16687 127.696 2.88606C128.185 2.60525 128.775 2.46484 129.465 2.46484Z" fill="#222B45"/>
<path d="M143.864 7.71191C145.268 7.71191 146.415 8.10906 147.306 8.90336C148.197 9.69765 148.642 10.9693 148.642 12.7184V21.5881H143.936V14.1505C143.936 13.2439 143.804 12.5619 143.539 12.1046C143.282 11.6393 142.865 11.4066 142.287 11.4066C141.397 11.4066 140.799 11.7717 140.494 12.5018C140.189 13.2239 140.037 14.2629 140.037 15.6188V21.5881H135.331V7.95261H138.882L139.519 9.75783H139.7C139.989 9.32457 140.334 8.95551 140.735 8.65062C141.136 8.34574 141.597 8.11307 142.119 7.95261C142.64 7.79214 143.222 7.71191 143.864 7.71191Z" fill="#222B45"/>
<path d="M156.819 7.95272V21.5882H152.114V7.95272H156.819ZM154.484 2.46484C155.158 2.46484 155.744 2.60525 156.242 2.88606C156.747 3.16687 157 3.72449 157 4.5589C157 5.36924 156.747 5.91883 156.242 6.20767C155.744 6.48848 155.158 6.62889 154.484 6.62889C153.795 6.62889 153.205 6.48848 152.715 6.20767C152.234 5.91883 151.993 5.36924 151.993 4.5589C151.993 3.72449 152.234 3.16687 152.715 2.88606C153.205 2.60525 153.795 2.46484 154.484 2.46484Z" fill="#222B45"/>
<path d="M168.884 7.71191C170.288 7.71191 171.435 8.10906 172.326 8.90336C173.216 9.69765 173.662 10.9693 173.662 12.7184V21.5881H168.956V14.1505C168.956 13.2439 168.824 12.5619 168.559 12.1046C168.302 11.6393 167.885 11.4066 167.307 11.4066C166.417 11.4066 165.819 11.7717 165.514 12.5018C165.209 13.2239 165.057 14.2629 165.057 15.6188V21.5881H160.351V7.95261H163.901L164.539 9.75783H164.72C165.009 9.32457 165.354 8.95551 165.755 8.65062C166.156 8.34574 166.617 8.11307 167.139 7.95261C167.66 7.79214 168.242 7.71191 168.884 7.71191Z" fill="#222B45"/>
<path d="M181.767 27.5092C179.833 27.5092 178.341 27.1842 177.29 26.5344C176.247 25.8925 175.725 24.9658 175.725 23.7543C175.725 22.944 175.978 22.274 176.484 21.7445C176.989 21.215 177.747 20.8339 178.758 20.6012C178.341 20.4247 177.976 20.1399 177.663 19.7467C177.358 19.3536 177.206 18.9645 177.206 18.5794C177.206 18.1541 177.322 17.781 177.555 17.4601C177.787 17.1312 178.273 16.742 179.011 16.2927C178.305 15.9798 177.747 15.4904 177.338 14.8245C176.937 14.1586 176.736 13.3482 176.736 12.3935C176.736 11.4066 176.961 10.5642 177.41 9.86614C177.868 9.16812 178.53 8.63458 179.396 8.26551C180.271 7.89644 181.334 7.71191 182.585 7.71191C182.754 7.71191 183.011 7.72796 183.356 7.76005C183.701 7.78412 184.05 7.81621 184.403 7.85633C184.756 7.88842 185.028 7.92051 185.221 7.95261H189.975V10.2272L188.109 10.9132C188.238 11.1459 188.334 11.3986 188.398 11.6714C188.462 11.9442 188.494 12.233 188.494 12.5379C188.494 14.0061 187.977 15.1454 186.942 15.9558C185.915 16.7661 184.378 17.1713 182.333 17.1713C181.827 17.1713 181.426 17.1392 181.129 17.075C181.073 17.1793 181.029 17.2836 180.997 17.3879C180.973 17.4842 180.961 17.5764 180.961 17.6647C180.961 17.8492 181.069 17.9977 181.286 18.11C181.51 18.2143 181.779 18.2865 182.092 18.3266C182.413 18.3667 182.718 18.3868 183.007 18.3868H185.269C186.801 18.3868 187.949 18.7077 188.711 19.3496C189.473 19.9914 189.854 20.9582 189.854 22.25C189.854 23.9108 189.144 25.2025 187.724 26.1252C186.312 27.0478 184.326 27.5092 181.767 27.5092ZM181.996 24.5727C182.565 24.5727 183.139 24.5205 183.717 24.4162C184.294 24.32 184.78 24.1595 185.173 23.9348C185.566 23.7102 185.762 23.4133 185.762 23.0443C185.762 22.7635 185.646 22.5508 185.413 22.4064C185.181 22.27 184.88 22.1778 184.511 22.1296C184.142 22.0815 183.753 22.0574 183.343 22.0574H181.514C181.177 22.0574 180.868 22.1096 180.588 22.2139C180.315 22.3262 180.098 22.4746 179.938 22.6592C179.777 22.8437 179.697 23.0523 179.697 23.285C179.697 23.6701 179.906 23.979 180.323 24.2116C180.74 24.4523 181.298 24.5727 181.996 24.5727ZM182.633 14.5116C183.083 14.5116 183.428 14.3391 183.668 13.9941C183.917 13.6491 184.042 13.1316 184.042 12.4416C184.042 11.7356 183.925 11.206 183.692 10.853C183.46 10.5 183.107 10.3235 182.633 10.3235C182.144 10.3235 181.779 10.5 181.538 10.853C181.298 11.198 181.177 11.7195 181.177 12.4175C181.177 13.1155 181.298 13.6411 181.538 13.9941C181.779 14.3391 182.144 14.5116 182.633 14.5116Z" fill="#222B45"/>
</g>
<defs>
<linearGradient id="paint0_linear_193_38" x1="3.22346e-05" y1="5.49327" x2="21.9919" y2="14.7614" gradientUnits="userSpaceOnUse">
<stop stop-color="#3455C3"/>
<stop offset="1" stop-color="#4280E4"/>
</linearGradient>
<clipPath id="clip0_193_38">
<rect width="190" height="28" fill="white"/>
</clipPath>
</defs>
</svg>
