<svg width="77" height="77" viewBox="0 0 77 77" fill="none" xmlns="http://www.w3.org/2000/svg">
<path d="M15 41.9337C23.2812 46.3821 31.9224 51.0383 38.5966 54.6412L62 41.9337C53.526 54.6671 46.4653 65.2679 38.5966 76.9999C30.7138 65.2937 22.0083 52.3767 15 41.9337ZM15.9001 38.4214L38.6221 26.1575L61.0484 38.3317L38.6349 50.6092L15.9001 38.4214ZM38.5966 22.2284L15 34.7929L38.4936 0L62 34.8709L38.5966 22.2284Z" fill="#3AB83A"/>
<path d="M38.1051 54.6412L62 41.9337C53.348 54.6671 38.1051 76.9999 38.1051 76.9999V54.6412ZM38.1312 26.1575L61.0284 38.3317L38.1443 50.6092L38.1312 26.1575ZM38.1051 22.2293L38 0L62 34.8709L38.1051 22.2293Z" fill="#0B8311"/>
<path d="M16 38.0825L38.648 40.0796L61 38L38.6595 51L16 38.0825Z" fill="#0B8311"/>
<path d="M39 40.0796L61 38L39.0125 51L39 40.0796Z" fill="#146714"/>
</svg>
