<svg viewBox="0 0 48 48" fill="none" xmlns="http://www.w3.org/2000/svg">
<circle cx="24" cy="24" r="24" fill="#B242A8"/>
<path d="M36.4746 12H29.3693L21.0065 20.7767V28.0883L36.4746 12" fill="url(#paint0_linear)"/>
<path d="M21.0065 36.2189H15V12H21.0065V36.2189Z" fill="white"/>
<path d="M29.9946 36.2189V36.1795H29.9553V36.1008H29.9159V36.0614H29.8766V35.9827H29.8372V35.9434H29.7979V35.8647H29.7585V35.8253H29.7191V35.7466H29.6798V35.7072H29.6404V35.6285H29.6011V35.5892H29.5617V35.5104H29.5224V35.4711H29.483V35.3924H29.4437V35.353H29.4043V35.2743H29.3649V35.235H29.3256V35.1562H29.2862V35.1169H29.2469V35.0382H29.2075V34.9988H29.1682V34.9201H29.1288V34.8808H29.0894V34.802H29.0501V34.7627H29.0107V34.684H28.9714V34.6446H28.932V34.5659H28.8927V34.5265H28.8533V34.4478H28.814V34.4085H28.7746V34.3298H28.7352V34.2904H28.6959V34.2117H28.6565V34.1723H28.6172V34.0936H28.5778V34.0543H28.5385V33.9756H28.4991V33.9362H28.4598V33.8575H28.4204V33.8181H28.381V33.7394H28.3417V33.7001H28.3023V33.6214H28.263V33.582H28.2236V33.5033H28.1843V33.4639H28.1449V33.3852H28.1055V33.3459H28.0662V33.2672H28.0268V33.2278H27.9875V33.1491H27.9481V33.1097H27.9088V33.031H27.8694V32.9917H27.8301V32.913H27.7907V32.8736H27.7513V32.7949H27.712V32.7555H27.6726V32.6768H27.6333V32.6375H27.5939V32.5587H27.5546V32.5194H27.5152V32.4407H27.4759V32.4013H27.4365V32.3226H27.3971V32.2833H27.3578V32.2045H27.3184V32.1652H27.2791V32.0865H27.2397V32.0471H27.2004V31.9684H27.161V31.9291H27.1216V31.8503H27.0823V31.811H27.0429V31.7323H27.0036V31.6929H26.9642V31.6142H26.9249V31.5749H26.8855V31.4961H26.8462V31.4568H26.8068V31.3781H26.7674V31.3387H26.7281V31.26H26.6887V31.2206H26.6494V31.1419H26.61V31.1026H26.5707V31.0239H26.5313V30.9845H26.492V30.9058H26.4526V30.8664H26.4132V30.7877H26.3739V30.7484H26.3345V30.6697H26.2952V30.6303H26.2558V30.5516H26.2165V30.5122H26.1771V30.4335H26.1377V30.3942H26.0984V30.3155H26.059V30.2761H26.0197V30.1974H25.9803V30.158H25.941V30.0793H25.9016V30.04H25.8623V30.0006H25.8229V29.9219H25.7835V29.8825H25.7442V29.8038H25.7048V29.7645H25.6655V29.6858H25.6261V29.6464H25.5868V29.5677H25.5474V29.5283H25.5081V29.4496H25.4687V29.4103H25.4293V29.3316H25.39V29.2922H25.3506V29.2135H25.3113V29.1741H25.2719V29.0954H25.2326V29.0561H25.1932V28.9774H25.1538V28.938H25.1145V28.8593H25.0751V28.8199H25.0358V28.7412H24.9964V28.7019H24.9571V28.6232H24.9177V28.5838H24.8784V28.5051H24.839V28.4657H24.7996V28.387H24.7603V28.3477H24.7209V28.2689H24.6816V28.2296H24.6422V28.1509H24.6029V28.1115H24.5635V28.0328H24.5242V27.9935H24.4848V27.9147H24.4454V27.8754H24.4061V27.7967H24.3667V27.7573H24.3274V27.6786H24.288V27.6393H24.2487V27.5605H24.2093V27.5212H24.1699V27.4425H24.1306V27.4031H24.0912V27.3244H24.0519V27.285H24.0125V27.2063H23.9732V27.167H23.9338V27.0883H23.8945V27.0489H23.8551V26.9702H23.8157V26.9308H23.7764V26.8521H23.737V26.8128H23.6977V26.7341H23.6583V26.6947H23.619V26.616H23.5796V26.5766H23.5403V26.4979H23.5009V26.4586H23.4615V26.3799H23.4222V26.3405H23.3828V26.2618H23.3435V26.2224H23.3041V26.1437H23.2648V26.1044H23.2254V26.0257H23.186V25.9863H23.1467V25.9076H23.1073V25.8289H23.1467V25.7895H23.186V25.7502H23.2254V25.7108H23.2648V25.6715H23.3041V25.6321H23.3435V25.5927H23.3828V25.5534H23.4222V25.514H23.4615V25.4747H23.5009V25.4353H23.5403V25.396H23.5796V25.3566H23.619V25.3172H23.6583V25.2779H23.6977V25.2385H23.737V25.1598H23.7764V25.1205H23.8157V25.0811H23.8551V25.0418H23.8945V25.0024H23.9338V24.963H23.9732V24.9237H24.0125V24.8843H24.0519V24.845H24.0912V24.8056H24.1306V24.7663H24.1699V24.7269H24.2093V24.6876H24.2487V24.6482H24.288V24.6088H24.3274V24.5695H24.3667V24.5301H24.4061V24.4908H24.4454V24.4514H24.4848V24.4121H24.5242V24.3727H24.5635V24.3333H24.6029V24.294H24.6422V24.2546H24.6816V24.2153H24.7209V24.1366H24.7603V24.0972H24.7996V24.0579H24.839V24.0185H24.8784V23.9791H24.9177V23.9398H24.9571V23.9004H24.9964V23.8611H25.0358V23.8217H25.0751V23.7824H25.1145V23.743H25.1538V23.7037H25.1932V23.6643H25.2326V23.6249H25.2719V23.5856H25.3113V23.5462H25.3506V23.5069H25.39V23.4675H25.4293V23.4282H25.4687V23.3888H25.5081V23.3494H25.5474V23.3101H25.5868V23.2707H25.6261V23.2314H25.6655V23.192H25.7048V23.1527H25.7442V23.074H25.7835V23.0346H25.8229V22.9952H25.8623V22.9559H25.9016V22.9165H25.941V22.8772H25.9803V22.8378H26.0197V22.7985H26.059V22.7591H26.0984V22.7198H26.1377V22.6804H26.1771V22.641H26.2165V22.6017H26.2558V22.5623H26.2952V22.523H26.3345V22.4836H26.3739V22.4443H26.4132V22.4049H26.4526V22.3655H26.492V22.3262H26.5313V22.2868H26.5707V22.2475H26.61V22.2081H26.6494V22.1688H26.6887V22.1294H26.7281V22.0507H26.7674V22.0113H26.8068V21.972H26.8462V21.9326H26.8855V21.8933H26.9249V21.8539H26.9642V21.8146H27.0036V21.7752H27.0429V21.7359H27.0823V21.6965H27.1216V21.6571H27.161V21.6965H27.2004V21.7359H27.2397V21.8146H27.2791V21.8539H27.3184V21.9326H27.3578V21.972H27.3971V22.0507H27.4365V22.0901H27.4759V22.1688H27.5152V22.2081H27.5546V22.2868H27.5939V22.3262H27.6333V22.4049H27.6726V22.4443H27.712V22.523H27.7513V22.5623H27.7907V22.6017H27.8301V22.6804H27.8694V22.7198H27.9088V22.7985H27.9481V22.8378H27.9875V22.9165H28.0268V22.9559H28.0662V23.0346H28.1055V23.074H28.1449V23.1527H28.1843V23.192H28.2236V23.2707H28.263V23.3101H28.3023V23.3888H28.3417V23.4282H28.381V23.5069H28.4204V23.5462H28.4598V23.5856H28.4991V23.6643H28.5385V23.7037H28.5778V23.7824H28.6172V23.8217H28.6565V23.9004H28.6959V23.9398H28.7352V24.0185H28.7746V24.0579H28.814V24.1366H28.8533V24.1759H28.8927V24.2546H28.932V24.294H28.9714V24.3727H29.0107V24.4121H29.0501V24.4908H29.0894V24.5301H29.1288V24.5695H29.1682V24.6482H29.2075V24.6876H29.2469V24.7663H29.2862V24.8056H29.3256V24.8843H29.3649V24.9237H29.4043V25.0024H29.4437V25.0418H29.483V25.1205H29.5224V25.1598H29.5617V25.2385H29.6011V25.2779H29.6404V25.3566H29.6798V25.396H29.7191V25.4747H29.7585V25.514H29.7979V25.5534H29.8372V25.6321H29.8766V25.6715H29.9159V25.7502H29.9553V25.7895H29.9946V25.8682H30.034V25.9076H30.0733V25.9863H30.1127V26.0257H30.1521V26.1044H30.1914V26.1437H30.2308V26.2224H30.2701V26.2618H30.3095V26.3405H30.3488V26.3799H30.3882V26.4586H30.4276V26.4979H30.4669V26.5766H30.5063V26.616H30.5456V26.6554H30.585V26.7341H30.6243V26.7734H30.6637V26.8521H30.703V26.8915H30.7424V26.9702H30.7818V27.0096H30.8211V27.0883H30.8605V27.1276H30.8998V27.2063H30.9392V27.2457H30.9785V27.3244H31.0179V27.3638H31.0572V27.4425H31.0966V27.4818H31.136V27.5605H31.1753V27.5999H31.2147V27.6393H31.254V27.718H31.2934V27.7573H31.3327V27.836H31.3721V27.8754H31.4115V27.9541H31.4508V27.9935H31.4902V28.0722H31.5295V28.1115H31.5689V28.1902H31.6082V28.2296H31.6476V28.3083H31.6869V28.3477H31.7263V28.4264H31.7657V28.4657H31.805V28.5444H31.8444V28.5838H31.8837V28.6232H31.9231V28.7019H31.9624V28.7412H32.0018V28.8199H32.0411V28.8593H32.0805V28.938H32.1199V28.9774H32.1592V29.0561H32.1986V29.0954H32.2379V29.1741H32.2773V29.2135H32.3166V29.2922H32.356V29.3316H32.3954V29.4103H32.4347V29.4496H32.4741V29.5283H32.5134V29.5677H32.5528V29.6071H32.5921V29.6858H32.6315V29.7251H32.6708V29.8038H32.7102V29.8432H32.7496V29.9219H32.7889V29.9613H32.8283V30.04H32.8676V30.0793H32.907V30.158H32.9463V30.1974H32.9857V30.2761H33.025V30.3155H33.0644V30.3942H33.1038V30.4335H33.1431V30.5122H33.1825V30.5516H33.2218V30.6303H33.2612V30.6697H33.3005V30.709H33.3399V30.7877H33.3793V30.8271H33.4186V30.9058H33.458V30.9452H33.4973V31.0239H33.5367V31.0632H33.576V31.1419H33.6154V31.1813H33.6547V31.26H33.6941V31.2994H33.7335V31.3781H33.7728V31.4174H33.8122V31.4961H33.8515V31.5355H33.8909V31.6142H33.9302V31.6536H33.9696V31.6929H34.0089V31.7716H34.0483V31.811H34.0877V31.8897H34.127V31.9291H34.1664V32.0078H34.2057V32.0471H34.2451V32.1258H34.2844V32.1652H34.3238V32.2439H34.3632V32.2833H34.4025V32.362H34.4419V32.4013H34.4812V32.48H34.5206V32.5194H34.5599V32.5981H34.5993V32.6375H34.6386V32.6768H34.678V32.7555H34.7174V32.7949H34.7567V32.8736H34.7961V32.913H34.8354V32.9917H34.8748V33.031H34.9141V33.1097H34.9535V33.1491H34.9928V33.2278H35.0322V33.2672H35.0716V33.3459H35.1109V33.3852H35.1503V33.4639H35.1896V33.5033H35.229V33.582H35.2683V33.6214H35.3077V33.6607H35.347V33.7394H35.3864V33.7788H35.4258V33.8575H35.4651V33.8969H35.5045V33.9756H35.5438V34.0149H35.5832V34.0936H35.6225V34.133H35.6619V34.2117H35.7013V34.2511H35.7406V34.3298H35.78V34.3691H35.8193V34.4478H35.8587V34.4872H35.898V34.5659H35.9374V34.6053H35.9767V34.684H36.0161V34.7233H36.0555V34.7627H36.0948V34.8414H36.1342V34.8808H36.1735V34.9595H36.2129V34.9988H36.2522V35.0775H36.2916V35.1169H36.3309V35.1956H36.3703V35.235H36.4097V35.3137H36.449V35.353H36.4884V35.4317H36.5277V35.4711H36.5671V35.5498H36.6064V35.5892H36.6458V35.6679H36.6852V35.7072H36.7245V35.7466H36.7639V35.8253H36.8032V35.8647H36.8426V35.9434H36.8819V35.9827H36.9213V36.0614H36.9606V36.1008H37V36.2189" fill="url(#paint1_linear)"/>
<defs>
<linearGradient id="paint0_linear" x1="20.3678" y1="20.044" x2="30.5788" y2="20.044" gradientUnits="userSpaceOnUse">
<stop stop-color="#B242A8"/>
<stop offset="1" stop-color="white"/>
</linearGradient>
<linearGradient id="paint1_linear" x1="22.1101" y1="25.5077" x2="30.4511" y2="29.9428" gradientUnits="userSpaceOnUse">
<stop stop-color="#B242A8"/>
<stop offset="0.217179" stop-color="#B242A8"/>
<stop offset="1" stop-color="white"/>
</linearGradient>
</defs>
</svg>
