<?xml version="1.0" standalone="no"?>
<!DOCTYPE svg PUBLIC "-//W3C//DTD SVG 20010904//EN"
 "http://www.w3.org/TR/2001/REC-SVG-20010904/DTD/svg10.dtd">
<svg version="1.0" xmlns="http://www.w3.org/2000/svg"
 width="640.000000pt" height="640.000000pt" viewBox="0 0 640.000000 640.000000"
 preserveAspectRatio="xMidYMid meet">
<metadata>
Created by potrace 1.14, written by Peter Selinger 2001-2017
</metadata>
<g transform="translate(0.000000,640.000000) scale(0.100000,-0.100000)"
fill="#000000" stroke="none">
<path d="M321 5559 c0 -463 3 -847 5 -854 3 -7 25 -19 50 -26 24 -7 44 -17 44
-21 0 -4 7 -8 15 -8 8 0 44 -13 80 -30 36 -16 71 -30 78 -30 6 0 21 -7 31 -15
10 -8 23 -12 27 -9 5 3 9 0 9 -5 0 -6 8 -11 18 -11 10 0 22 -3 26 -7 4 -5 11
-8 14 -8 4 -1 29 -11 56 -23 27 -12 50 -22 52 -22 6 0 96 -40 127 -56 15 -9
27 -13 27 -10 0 3 30 -9 68 -25 37 -17 76 -34 87 -38 11 -5 36 -16 55 -24 19
-8 76 -31 125 -52 50 -20 104 -42 120 -50 17 -7 59 -25 95 -40 36 -14 79 -32
95 -40 17 -7 62 -25 100 -40 39 -15 75 -31 80 -35 6 -4 22 -10 38 -14 l27 -6
1 192 c1 409 2 503 5 510 3 3 17 0 32 -7 15 -7 122 -52 237 -100 116 -48 216
-92 224 -99 8 -6 17 -10 20 -10 3 1 13 -1 21 -4 19 -6 268 -110 295 -122 11
-5 70 -30 130 -56 156 -66 159 -67 165 -69 3 -1 23 -9 44 -18 22 -10 50 -20
63 -23 13 -4 25 -10 28 -14 8 -12 51 -2 109 24 28 13 83 36 121 51 39 15 74
31 79 36 6 5 16 9 22 9 7 0 47 16 88 35 42 19 78 35 81 35 3 0 24 9 48 19 23
11 71 32 107 46 36 15 83 35 105 45 39 16 75 31 85 35 3 1 16 7 30 12 129 56
367 155 375 157 6 1 20 8 33 14 26 15 23 64 24 -391 1 -279 2 -307 17 -302 9
4 23 8 31 10 8 2 76 29 150 60 74 31 189 79 255 106 66 28 129 54 140 59 41
19 312 132 355 148 25 9 48 21 51 25 3 5 8 8 10 7 8 -3 41 10 144 56 33 14 65
27 70 29 6 1 24 8 40 15 17 7 32 14 35 15 3 0 28 11 55 24 28 12 55 24 60 25
10 3 22 8 98 39 l37 16 0 83 c1 156 2 1593 1 1606 -1 10 -154 12 -778 12 -428
-1 -782 -5 -788 -9 -5 -4 -46 -23 -89 -41 -44 -17 -87 -36 -95 -40 -9 -4 -72
-32 -141 -61 -128 -53 -192 -81 -245 -105 -16 -7 -52 -22 -80 -33 -27 -10 -72
-29 -100 -42 -27 -12 -52 -23 -55 -23 -7 -2 -160 -66 -179 -76 -9 -4 -41 -18
-71 -30 -72 -30 -84 -35 -153 -64 -40 -18 -64 -23 -75 -17 -9 5 -89 39 -177
75 -181 74 -505 210 -550 231 -32 15 -87 38 -95 40 -3 0 -27 11 -54 23 -27 12
-50 22 -52 22 -2 0 -26 9 -52 21 -26 12 -56 25 -67 29 -11 4 -47 20 -80 35
-33 15 -69 30 -80 35 -11 4 -32 12 -47 18 -19 8 -270 11 -798 12 l-770 0 1
-841z"/>
<path d="M324 3177 c2 -336 6 -623 8 -637 3 -14 8 -56 13 -95 7 -68 9 -79 20
-127 3 -13 7 -38 10 -57 2 -18 7 -41 9 -50 3 -9 7 -27 10 -41 7 -37 72 -260
87 -295 7 -16 13 -35 14 -41 7 -32 94 -224 152 -332 204 -389 535 -758 898
-1003 44 -30 82 -56 85 -59 3 -3 16 -11 30 -19 14 -8 48 -27 75 -43 82 -47
348 -175 383 -184 9 -2 76 -24 147 -48 72 -24 184 -56 250 -71 118 -26 135
-30 205 -40 19 -2 51 -7 70 -10 175 -26 572 -26 730 -1 14 2 46 7 71 10 65 9
75 11 226 45 95 21 288 80 358 109 21 9 42 17 45 17 3 1 14 6 25 12 11 6 23
11 28 11 17 1 247 117 336 169 106 62 224 142 229 155 2 4 8 8 14 8 20 0 231
182 343 297 225 230 384 458 530 761 30 62 55 119 55 127 0 8 4 16 8 19 4 2
28 65 52 138 55 168 52 160 56 177 2 12 7 30 19 71 2 9 25 114 30 140 3 14 8
45 11 70 3 25 7 54 9 65 7 48 17 136 20 186 3 44 8 1103 6 1161 -1 19 -5 18
-131 -40 -25 -11 -74 -32 -110 -47 -36 -14 -83 -35 -105 -45 -22 -10 -213 -94
-425 -185 -212 -92 -405 -176 -430 -187 -25 -11 -58 -26 -75 -33 -16 -8 -61
-28 -99 -44 -38 -17 -75 -31 -82 -31 -8 0 -14 -4 -14 -10 0 -5 -7 -10 -15 -10
-8 0 -25 -5 -38 -11 l-24 -11 0 -216 c-1 -235 -4 -276 -33 -398 -108 -463
-481 -832 -954 -944 -241 -58 -453 -47 -726 35 -30 9 -59 21 -64 26 -6 5 -18
9 -28 9 -10 0 -18 5 -18 10 0 6 -6 10 -13 10 -23 0 -188 100 -256 155 -77 62
-179 167 -237 245 -105 141 -195 341 -219 490 -4 25 -9 54 -12 65 -10 42 -11
76 -12 291 l-1 222 -117 50 c-65 28 -140 61 -168 73 -27 13 -54 24 -60 25 -5
1 -62 26 -125 54 -153 68 -163 73 -250 110 -41 18 -93 41 -114 51 -22 11 -43
19 -47 19 -5 0 -41 15 -81 34 -40 18 -102 46 -138 61 -36 15 -89 38 -118 51
-29 13 -54 24 -57 24 -2 0 -39 16 -82 36 -43 20 -82 37 -88 38 -5 1 -20 7 -32
14 -12 7 -33 16 -47 22 l-26 9 4 -612z"/>
</g>
</svg>
