<svg width="16" height="14" viewBox="0 0 16 14" fill="none" xmlns="http://www.w3.org/2000/svg">
<path fill-rule="evenodd" clip-rule="evenodd" d="M12.8622 12.8425L12.8628 12.8412L12.8758 12.8086L15.1249 1.46932V1.43249C15.1249 1.14996 15.0205 0.90332 14.7933 0.755375C14.5945 0.625879 14.3659 0.616656 14.2057 0.628822C14.0362 0.641688 13.8763 0.683999 13.7657 0.71922C13.7087 0.737339 13.6611 0.754798 13.627 0.768003C13.6099 0.774631 13.5961 0.780255 13.586 0.784444L13.5761 0.788612L1.0362 5.70781L1.03275 5.70905C1.02598 5.71152 1.01702 5.71486 1.0062 5.71907C0.984639 5.72746 0.955284 5.73948 0.920799 5.75511C0.853088 5.78579 0.759536 5.83315 0.66466 5.89812C0.50352 6.00847 0.196684 6.26971 0.248496 6.68388C0.291411 7.02694 0.527889 7.24481 0.687315 7.35762C0.772777 7.41809 0.854536 7.46169 0.914407 7.49019C0.944744 7.50463 0.970512 7.5157 0.989702 7.52351C0.999324 7.52743 1.00737 7.53056 1.01359 7.53292L1.02156 7.5359L1.02666 7.53779L3.22059 8.27639C3.21318 8.41404 3.22683 8.55439 3.26334 8.69287L4.3623 12.8617C4.4926 13.356 4.93977 13.7003 5.45095 13.6999C5.90915 13.6996 6.31552 13.4224 6.48816 13.0088L8.20392 11.1743L11.1507 13.4334L11.1926 13.4517C11.4603 13.5685 11.7104 13.6056 11.9391 13.5743C12.1675 13.5431 12.349 13.4474 12.4853 13.3383C12.6194 13.231 12.7114 13.1098 12.7692 13.0187C12.7985 12.9723 12.8204 12.9316 12.8356 12.901C12.8433 12.8856 12.8493 12.8725 12.8538 12.8624L12.8594 12.8493L12.8614 12.8445L12.8622 12.8425ZM4.35114 8.40609C4.32616 8.31134 4.36537 8.21133 4.44809 8.1588L11.8896 3.43312C11.8896 3.43312 12.3273 3.16739 12.3116 3.43312C12.3116 3.43312 12.3898 3.48004 12.1552 3.69884C11.9328 3.90664 6.85146 8.81244 6.33731 9.30885C6.30763 9.33751 6.28991 9.37038 6.27946 9.41028L5.4501 12.5749L4.35114 8.40609Z" fill="#222B45"/>
</svg>
