<svg width="12" height="10" viewBox="0 0 12 10" fill="none" xmlns="http://www.w3.org/2000/svg">
    <path d="M0.735699 4.35502C0.735699 4.35502 6.04301 2.15984 7.88367 1.38686C8.58929 1.07769 10.9822 0.088274 10.9822 0.088274C10.9822 0.088274 12.0866 -0.344558 11.9946 0.706649C11.9639 1.13952 11.7184 2.6545 11.473 4.29319C11.1049 6.61209 10.7061 9.14738 10.7061 9.14738C10.7061 9.14738 10.6447 9.85852 10.1232 9.98219C9.60167 10.1059 8.74265 9.54936 8.58929 9.42565C8.46655 9.33292 6.28842 7.94157 5.4908 7.26136C5.27604 7.07586 5.03063 6.70486 5.52145 6.27198C6.62588 5.25167 7.94503 3.98402 8.74265 3.18015C9.11081 2.80911 9.47893 1.9434 7.94503 2.99461C5.76691 4.50963 3.61944 5.93188 3.61944 5.93188C3.61944 5.93188 3.12858 6.24104 2.20825 5.96277C1.28787 5.68454 0.214139 5.3135 0.214139 5.3135C0.214139 5.3135 -0.522092 4.84973 0.735699 4.35502Z" fill="white"/>
</svg>
